HIERARCHY
ROOT SpineBase
{
  OFFSET 0.000000 0.000000 0.000000
  CHANNELS 6 Xposition Yposition Zposition Zrotation Xrotation Yrotation
  JOINT SpineMid
  {
    OFFSET 0.000000 26.795013 0.000000
    CHANNELS 3 Zrotation Xrotation Yrotation
    JOINT SpineShoulder
    {
      OFFSET -0.080743 19.990321 -0.694233
      CHANNELS 3 Zrotation Xrotation Yrotation
      JOINT Neck
      {
        OFFSET -0.094935 6.646584 -0.521326
        CHANNELS 3 Zrotation Xrotation Yrotation
        JOINT Head
        {
          OFFSET -3.540173 11.297285 2.468487
          CHANNELS 3 Zrotation Xrotation Yrotation
          End Site
          {
            OFFSET 0 0 0
          }
        }
      }
      JOINT ShoulderLeft
      {
        OFFSET -4.814128 -5.897365 13.044976
        CHANNELS 3 Zrotation Xrotation Yrotation
        JOINT ElbowLeft
        {
          OFFSET -6.661741 -19.957676 0.062428
          CHANNELS 3 Zrotation Xrotation Yrotation
          JOINT WristLeft
          {
            OFFSET 5.321840 0.927873 -25.142860
            CHANNELS 3 Zrotation Xrotation Yrotation
            JOINT HandLeft
            {
              OFFSET 5.635306 -0.243680 -7.209420
              CHANNELS 3 Zrotation Xrotation Yrotation
              JOINT HandTipLeft
              {
                OFFSET 0.759314 0.074933 -1.826299
                CHANNELS 3 Zrotation Xrotation Yrotation
                End Site
                {
                  OFFSET 0 0 0
                }
              }
              JOINT ThumbLeft
              {
                OFFSET -1.473899 -4.402360 -0.967946
                CHANNELS 3 Zrotation Xrotation Yrotation
                End Site
                {
                  OFFSET 0 0 0
                }
              }
            }
          }
        }
      }
      JOINT ShoulderRight
      {
        OFFSET 3.145440 -2.918075 -12.194690
        CHANNELS 3 Zrotation Xrotation Yrotation
        JOINT ElbowRight
        {
          OFFSET -2.898923 -20.878642 -3.635658
          CHANNELS 3 Zrotation Xrotation Yrotation
          JOINT WristRight
          {
            OFFSET -3.654328 -17.865358 -0.526384
            CHANNELS 3 Zrotation Xrotation Yrotation
            JOINT HandRight
            {
              OFFSET -0.939455 -7.720175 2.215570
              CHANNELS 3 Zrotation Xrotation Yrotation
              JOINT HandTipRight
              {
                OFFSET -3.606392 -6.138146 -0.458112
                CHANNELS 3 Zrotation Xrotation Yrotation
                End Site
                {
                  OFFSET 0 0 0
                }
              }
              JOINT ThumbRight
              {
                OFFSET -2.383315 2.988758 4.024640
                CHANNELS 3 Zrotation Xrotation Yrotation
                End Site
                {
                  OFFSET 0 0 0
                }
              }
            }
          }
        }
      }
    }
  }
  JOINT HipLeft
  {
    OFFSET -2.541343 0.752297 2.345820
    CHANNELS 3 Zrotation Xrotation Yrotation
    JOINT KneeLeft
    {
      OFFSET 6.182521 -38.006409 8.574922
      CHANNELS 3 Zrotation Xrotation Yrotation
      JOINT AnkleLeft
      {
        OFFSET 11.877480 -24.418245 1.495080
        CHANNELS 3 Zrotation Xrotation Yrotation
        JOINT FootLeft
        {
          OFFSET 0.234949 -5.559108 -6.841234
          CHANNELS 3 Zrotation Xrotation Yrotation
          End Site
          {
            OFFSET 0 0 0
          }
        }
      }
    }
  }
  JOINT HipRight
  {
    OFFSET 0.707848 1.334806 -8.177860
    CHANNELS 3 Zrotation Xrotation Yrotation
    JOINT KneeRight
    {
      OFFSET 6.156949 -31.070220 -1.622384
      CHANNELS 3 Zrotation Xrotation Yrotation
      JOINT AnkleRight
      {
        OFFSET 10.747349 -31.073484 0.665097
        CHANNELS 3 Zrotation Xrotation Yrotation
        JOINT FootRight
        {
          OFFSET -0.816654 -6.745501 1.546410
          CHANNELS 3 Zrotation Xrotation Yrotation
          End Site
          {
            OFFSET 0 0 0
          }
        }
      }
    }
  }
}
MOTION
Frames: 5
Frame Time: 0.033333
102.244810 68.676305 318.618911 -1.502928 -0.062911 70.265136 0.566805 -1.393393 -70.259068 -0.000000 0.000000 0.000000 -1.413679 -0.813219 0.044276 0.000000 0.000000 0.000000 3.383166 -1.692464 0.631738 -3.605874 0.187870 1.449968 1.373584 2.535623 -6.900965 -0.523879 -0.319944 10.731377 0.000000 0.000000 0.000000 0.000000 0.000000 0.000000 2.961478 3.362462 -1.068091 -2.903476 -3.412658 0.894636 -1.603883 -4.518618 0.026206 5.086568 1.593596 1.139338 0.000000 0.000000 0.000000 0.000000 0.000000 0.000000 1.086583 -2.605253 -69.931596 -0.753013 -0.688821 -0.569414 -21.998639 -18.377718 28.440558 0.000000 0.000000 0.000000 1.885666 -1.352472 -70.000373 1.064816 -0.733371 0.006345 -13.722650 6.160460 -3.242553 0.000000 0.000000 0.000000
102.413096 68.621477 318.587477 -1.243093 -0.100684 70.968492 0.500590 -1.142304 -70.964594 -0.000000 0.000000 0.000000 -0.950473 -0.690568 -0.014501 0.000000 0.000000 0.000000 -0.000000 0.000000 0.000000 0.603791 2.733450 2.060260 3.231965 1.703707 -4.227330 -0.099939 6.917062 13.599232 0.000000 0.000000 0.000000 0.000000 0.000000 0.000000 3.746034 4.761814 -1.465854 -4.502788 -5.039743 1.143047 -0.511351 -6.436486 0.267780 5.020345 4.023582 0.425500 0.000000 0.000000 0.000000 0.000000 0.000000 0.000000 0.856209 -2.015628 -70.734323 -1.088563 -2.675160 -1.510235 -23.166962 -15.063544 33.158023 0.000000 0.000000 0.000000 1.639815 -0.848866 -70.717538 1.316368 -0.598389 0.023162 -12.726435 2.265142 -2.993566 0.000000 0.000000 0.000000
102.447289 68.689761 318.491101 -1.113773 0.052050 70.505539 0.322661 -1.067287 -70.502028 -0.000000 0.000000 0.000000 -1.180952 -1.211091 -0.134705 0.000000 0.000000 0.000000 -3.707035 2.423716 -0.734400 5.736343 8.157845 2.017792 5.423400 -1.502416 -3.889606 -2.314162 8.682797 15.307433 0.000000 0.000000 0.000000 0.000000 0.000000 0.000000 4.289192 5.719175 -1.750074 -5.315240 -6.270478 1.319566 -0.541197 -8.369453 0.326615 5.876509 6.757149 -0.405353 0.000000 0.000000 0.000000 0.000000 0.000000 0.000000 0.558901 -1.926189 -70.306091 -1.647694 -4.260200 -2.371326 -22.276909 -7.328146 33.455059 0.000000 0.000000 0.000000 1.280599 -0.557207 -70.267417 1.321370 -0.535281 0.008691 -5.673918 -13.634239 -0.205270 0.000000 0.000000 0.000000
102.783537 69.046182 318.365918 -0.321628 0.350258 69.129361 -0.212693 -0.425307 -69.129167 -0.000000 0.000000 0.000000 -2.071175 -2.204992 -0.281083 0.000000 0.000000 0.000000 -8.452357 5.662332 -1.463368 12.723383 17.178450 0.845096 8.519148 -8.558657 -7.893664 -6.599202 13.699157 21.008886 0.000000 0.000000 0.000000 0.000000 0.000000 0.000000 4.835138 6.576467 -2.025935 -6.119952 -7.371168 1.462569 -0.347804 -10.457100 0.476943 8.059630 8.862109 -1.296661 0.000000 0.000000 0.000000 0.000000 0.000000 0.000000 -0.212693 -0.425307 -69.129167 -1.048212 -4.594654 -2.346707 -24.522743 5.582231 34.911672 0.000000 0.000000 0.000000 0.105246 1.089103 -68.896802 2.069291 -0.401324 -0.046840 -10.593313 -14.421345 -1.928738 0.000000 0.000000 0.000000
102.894572 69.480591 318.219351 0.217220 0.767087 67.158401 0.123508 0.057417 -67.149186 0.693651 0.294225 0.080343 -4.285145 -4.710067 -0.647668 0.000000 0.000000 0.000000 -13.767066 5.742643 -1.869971 20.572112 30.516540 -2.138057 16.319179 -16.453062 -15.860491 -18.781899 14.609008 36.279560 0.000000 0.000000 0.000000 0.000000 0.000000 0.000000 4.421357 5.953032 -2.232451 -6.837162 -8.091435 1.550688 -0.245355 -12.825624 0.642765 9.917335 11.121889 -2.279175 0.000000 0.000000 0.000000 0.000000 0.000000 0.000000 -0.791255 -0.097576 -67.160529 -2.004963 -6.342882 -3.338474 -22.316812 29.646617 31.296562 0.000000 0.000000 0.000000 -1.039470 2.105853 -66.920114 2.124467 -0.635221 -0.224286 -5.315108 -18.452437 0.163149 0.000000 0.000000 0.000000
